<svg aria-hidden="true" style="position: absolute; width: 0; height: 0; overflow: hidden;" version="1.1" xmlns="http://www.w3.org/2000/svg" xmlns:xlink="http://www.w3.org/1999/xlink">
<defs>
<symbol id="icon-client-1" viewBox="0 0 321 168">
<path fill="#8e8f99" style="fill: var(--color1, #8e8f99)" d="M133.636 43.909l13.378 12.746-24.833-0.015v61.84h64.909v-23.644l13.364 12.732v-63.658h-66.818zM186.504 93.34l-37.933-36.14h37.933v36.14zM174.726 109.434h-42.273v-41.59h2.988v38.774h39.285v2.816zM140.883 129.935l-1.575-3.239h-1.3l2.284 4.288v2.498h1.179v-2.498l2.284-4.288h-1.296l-1.575 3.239zM146.691 126.695h0.28l2.563 6.786h-1.23l-0.549-1.589h-2.627l-0.548 1.589h-1.226l2.554-6.786h0.783zM145.447 130.965h1.987l-0.994-2.879-0.992 2.879zM153.648 129.841c-0.051-0.065-0.1-0.128-0.147-0.19-0.174-0.23-0.309-0.452-0.406-0.666-0.096-0.218-0.145-0.441-0.145-0.671 0-0.354 0.073-0.659 0.219-0.913s0.353-0.451 0.62-0.587c0.267-0.14 0.579-0.21 0.937-0.21 0.345 0 0.642 0.070 0.89 0.21 0.252 0.137 0.444 0.318 0.578 0.545 0.137 0.227 0.205 0.475 0.205 0.746 0 0.214-0.039 0.41-0.116 0.588s-0.185 0.339-0.322 0.485c-0.137 0.146-0.295 0.284-0.475 0.415l-0.471 0.343 1.344 1.586c0.044-0.087 0.084-0.179 0.12-0.274 0.115-0.298 0.173-0.629 0.173-0.993h0.969c0 0.329-0.033 0.642-0.098 0.937-0.062 0.295-0.163 0.568-0.303 0.82-0.057 0.105-0.121 0.204-0.192 0.3l0.994 1.173h-1.3l-0.394-0.464c-0.213 0.162-0.446 0.289-0.696 0.38-0.329 0.118-0.68 0.177-1.053 0.177-0.451 0-0.84-0.083-1.17-0.247s-0.584-0.392-0.764-0.681c-0.177-0.289-0.266-0.62-0.266-0.993 0-0.277 0.057-0.519 0.172-0.727 0.115-0.211 0.272-0.407 0.471-0.587 0.184-0.167 0.393-0.333 0.628-0.5zM154.204 130.522l-0.14 0.102c-0.165 0.134-0.287 0.263-0.368 0.387-0.078 0.121-0.129 0.233-0.154 0.336s-0.037 0.193-0.037 0.27c0 0.199 0.042 0.379 0.126 0.541 0.087 0.161 0.213 0.29 0.378 0.387 0.168 0.093 0.371 0.14 0.61 0.14 0.258 0 0.508-0.057 0.75-0.172 0.121-0.059 0.237-0.13 0.346-0.214l-1.51-1.776zM154.473 129.283l0.416-0.28c0.196-0.13 0.336-0.258 0.42-0.382 0.084-0.127 0.126-0.286 0.126-0.475 0-0.161-0.062-0.311-0.187-0.448s-0.3-0.205-0.527-0.205c-0.158 0-0.292 0.037-0.401 0.112-0.109 0.071-0.191 0.168-0.247 0.289-0.053 0.118-0.079 0.25-0.079 0.396 0 0.14 0.036 0.284 0.107 0.433 0.072 0.146 0.169 0.3 0.294 0.462 0.025 0.032 0.051 0.065 0.078 0.098zM166.345 131.272h-1.165c-0.034 0.295-0.105 0.545-0.214 0.75-0.105 0.202-0.262 0.356-0.471 0.462-0.205 0.105-0.474 0.158-0.806 0.158-0.273 0-0.508-0.054-0.704-0.163s-0.357-0.262-0.485-0.462c-0.124-0.199-0.217-0.437-0.28-0.713-0.059-0.28-0.089-0.59-0.089-0.932v-0.573c0-0.36 0.033-0.68 0.098-0.96 0.068-0.283 0.169-0.52 0.303-0.713s0.3-0.339 0.499-0.438c0.199-0.099 0.432-0.149 0.699-0.149 0.326 0 0.59 0.056 0.792 0.168 0.202 0.109 0.354 0.267 0.457 0.475 0.105 0.208 0.174 0.458 0.205 0.75h1.165c-0.047-0.454-0.174-0.856-0.382-1.207-0.205-0.351-0.494-0.626-0.867-0.825s-0.83-0.298-1.37-0.298c-0.426 0-0.809 0.075-1.151 0.224-0.339 0.149-0.629 0.365-0.872 0.648-0.242 0.28-0.429 0.617-0.559 1.011-0.127 0.395-0.191 0.836-0.191 1.324v0.564c0 0.488 0.062 0.929 0.187 1.324 0.127 0.395 0.311 0.732 0.55 1.011 0.239 0.276 0.527 0.491 0.862 0.643 0.336 0.149 0.713 0.224 1.133 0.224 0.547 0 1.011-0.099 1.394-0.298s0.679-0.471 0.89-0.816c0.211-0.348 0.336-0.744 0.373-1.189zM172.819 130.275v-0.373c0-0.513-0.068-0.971-0.205-1.375-0.134-0.407-0.325-0.754-0.573-1.039-0.249-0.289-0.545-0.508-0.89-0.657-0.345-0.152-0.727-0.228-1.147-0.228-0.416 0-0.797 0.076-1.142 0.228-0.342 0.149-0.639 0.368-0.89 0.657-0.249 0.286-0.441 0.632-0.578 1.039-0.137 0.404-0.205 0.862-0.205 1.375v0.373c0 0.513 0.068 0.973 0.205 1.38 0.14 0.407 0.336 0.754 0.587 1.039s0.548 0.505 0.89 0.657c0.345 0.149 0.726 0.224 1.142 0.224 0.42 0 0.802-0.075 1.147-0.224 0.345-0.152 0.64-0.371 0.885-0.657 0.249-0.286 0.44-0.632 0.573-1.039s0.2-0.867 0.2-1.38zM171.649 129.893v0.382c0 0.379-0.037 0.715-0.112 1.007-0.071 0.292-0.177 0.539-0.317 0.741-0.14 0.199-0.311 0.35-0.513 0.452-0.202 0.099-0.434 0.149-0.694 0.149-0.258 0-0.488-0.050-0.69-0.149-0.202-0.103-0.376-0.253-0.522-0.452-0.143-0.202-0.252-0.449-0.326-0.741s-0.112-0.628-0.112-1.007v-0.382c0-0.379 0.037-0.713 0.112-1.002 0.075-0.292 0.182-0.536 0.322-0.732 0.143-0.199 0.315-0.348 0.517-0.447 0.202-0.103 0.432-0.154 0.69-0.154s0.49 0.051 0.694 0.154c0.205 0.099 0.378 0.249 0.517 0.447 0.143 0.196 0.25 0.44 0.322 0.732 0.075 0.289 0.112 0.623 0.112 1.002z"></path>
</symbol>
<symbol id="icon-client-2" viewBox="0 0 321 168">
<path fill="#8e8f99" style="fill: var(--color1, #8e8f99)" d="M156.762 41.875h-0.261c-0.401-0.024-0.802-0.034-1.203-0.044v0h-0.869c-0.758 0-1.531 0.020-2.299 0.058-0.058-0.004-0.116-0.004-0.174 0-6.958 0.394-13.774 2.133-20.076 5.122l-0.826 0.398v42.27l1.932-0.655c1.695-0.583 3.501-1.107 5.37-1.592 5.052-1.297 10.24-1.986 15.455-2.053v5.554c-0.691 0.005-1.362 0.024-2.033 0.058h-0.159c-4.013 0.22-7.995 0.831-11.89 1.825-4.933 1.235-9.692 3.090-14.165 5.52v-54.212c4.645-2.709 9.648-4.744 14.86-6.044 4.576-1.182 9.281-1.788 14.006-1.806h0.816c0.976 0.024 1.927 0.068 2.821 0.136 2.354 0.165 4.689 0.537 6.979 1.112v5.466c-2.224-0.518-4.484-0.859-6.761-1.019-0.046-0.004-0.092-0.008-0.139-0.012-0.471-0.040-0.943-0.081-1.383-0.081zM166.383 47.463c1.212 0.092 2.468 0.136 3.738 0.136 4.967-0.018 9.912-0.652 14.725-1.889 4.931-1.24 9.689-3.096 14.16-5.524v53.246c-4.647 2.708-9.652 4.742-14.865 6.044-4.577 1.177-9.281 1.782-14.006 1.801-3.58 0.029-7.149-0.392-10.625-1.253v-53.591c0.821 0.189 1.666 0.364 2.526 0.51 1.41 0.238 2.898 0.413 4.347 0.519zM193.481 47.875l-1.932 0.651c-1.777 0.597-3.569 1.131-5.37 1.607-5.245 1.348-10.635 2.039-16.048 2.058-1.26 0-2.419-0.034-3.54-0.107l-1.541-0.102v43.483l1.323 0.116c1.227 0.107 2.492 0.16 3.767 0.16 4.264-0.018 8.509-0.567 12.639-1.636 3.4-0.853 6.709-2.042 9.875-3.549l0.827-0.398v-42.284z"></path>
<path fill="#8e8f99" style="fill: var(--color1, #8e8f99)" d="M129.316 116.86c-0.278-0.288-0.612-0.514-0.983-0.664s-0.768-0.22-1.166-0.205c-0.425-0.006-0.847 0.073-1.241 0.233-0.362 0.144-0.69 0.36-0.966 0.636-0.273 0.276-0.485 0.607-0.623 0.971-0.151 0.381-0.227 0.789-0.222 1.199v7.243c-0.017 0.51 0.080 1.018 0.285 1.485 0.171 0.371 0.418 0.702 0.724 0.971 0.29 0.244 0.63 0.42 0.995 0.515 0.352 0.099 0.716 0.149 1.082 0.15 0.403 0.004 0.803-0.082 1.169-0.252 0.362-0.158 0.69-0.386 0.966-0.67 0.269-0.281 0.483-0.61 0.632-0.971 0.155-0.365 0.234-0.758 0.232-1.155v-0.811h-1.893v0.646c0.006 0.221-0.032 0.44-0.111 0.646-0.062 0.154-0.155 0.293-0.275 0.408-0.117 0.095-0.252 0.166-0.396 0.209-0.128 0.042-0.261 0.065-0.396 0.068-0.169 0.020-0.34-0.006-0.496-0.074s-0.291-0.177-0.392-0.314c-0.178-0.291-0.266-0.629-0.251-0.971v-6.753c-0.012-0.374 0.068-0.746 0.232-1.082 0.098-0.153 0.237-0.275 0.401-0.352s0.346-0.107 0.526-0.085c0.163-0.006 0.325 0.028 0.472 0.099s0.275 0.177 0.373 0.308c0.212 0.278 0.323 0.621 0.314 0.971v0.626h1.874v-0.738c0.004-0.433-0.075-0.863-0.232-1.267-0.14-0.379-0.355-0.726-0.633-1.019z"></path>
<path fill="#8e8f99" style="fill: var(--color1, #8e8f99)" d="M140.564 116.777c-0.604-0.51-1.365-0.791-2.154-0.796-0.386 0.001-0.768 0.071-1.13 0.204-0.368 0.132-0.707 0.333-1 0.592-0.314 0.282-0.564 0.628-0.734 1.015-0.191 0.442-0.284 0.921-0.275 1.403v6.947c-0.013 0.489 0.081 0.974 0.275 1.422 0.171 0.373 0.422 0.705 0.734 0.971 0.289 0.269 0.629 0.477 1 0.612 0.362 0.133 0.745 0.202 1.13 0.204 0.386-0.001 0.768-0.070 1.13-0.204 0.377-0.137 0.724-0.345 1.024-0.612 0.302-0.271 0.545-0.601 0.715-0.971 0.194-0.448 0.288-0.934 0.275-1.422v-6.947c0.009-0.482-0.084-0.961-0.275-1.403-0.168-0.383-0.411-0.728-0.715-1.015zM139.681 126.142c0.016 0.185-0.010 0.371-0.075 0.546s-0.168 0.331-0.302 0.46c-0.25 0.21-0.566 0.325-0.891 0.325s-0.641-0.115-0.891-0.325c-0.134-0.129-0.237-0.286-0.302-0.46s-0.091-0.36-0.075-0.546v-6.947c-0.016-0.185 0.010-0.371 0.075-0.546s0.168-0.331 0.302-0.46c0.25-0.21 0.565-0.325 0.891-0.325s0.641 0.115 0.891 0.325c0.133 0.128 0.237 0.286 0.302 0.46s0.091 0.36 0.075 0.546v6.947z"></path>
<path fill="#8e8f99" style="fill: var(--color1, #8e8f99)" d="M155.337 129.244v-13.151h-1.821l-2.391 6.962h-0.034l-2.41-6.962h-1.801v13.151h1.879v-8.001h0.034l1.84 5.656h0.937l1.855-5.656h0.034v8.001h1.879z"></path>
<path fill="#8e8f99" style="fill: var(--color1, #8e8f99)" d="M166.011 117.015c-0.289-0.325-0.654-0.572-1.063-0.719-0.44-0.143-0.9-0.212-1.362-0.204h-2.791v13.151h1.874v-5.136h0.966c0.585 0.027 1.166-0.097 1.69-0.359 0.426-0.237 0.781-0.584 1.029-1.005 0.217-0.35 0.363-0.739 0.43-1.146 0.074-0.495 0.108-0.995 0.101-1.495 0.018-0.631-0.043-1.263-0.183-1.879-0.125-0.455-0.363-0.871-0.691-1.209zM165.045 121.025c-0.008 0.238-0.067 0.472-0.174 0.685-0.107 0.202-0.276 0.364-0.483 0.461-0.278 0.124-0.58 0.181-0.884 0.165h-0.855v-4.471h0.966c0.291-0.014 0.581 0.042 0.845 0.165 0.194 0.111 0.348 0.281 0.44 0.485 0.103 0.231 0.158 0.48 0.164 0.733 0 0.277 0 0.568 0 0.874s0.019 0.621 0 0.903h-0.019z"></path>
<path fill="#8e8f99" style="fill: var(--color1, #8e8f99)" d="M174.888 116.093h-1.536l-2.898 13.151h1.874l0.551-2.825h2.555l0.551 2.825h1.874l-2.97-13.151zM173.158 124.628l0.923-4.767h0.034l0.918 4.767h-1.874z"></path>
<path fill="#8e8f99" style="fill: var(--color1, #8e8f99)" d="M186.995 124.016h-0.034l-2.83-7.923h-1.801v13.151h1.874v-7.908h0.039l2.864 7.908h1.763v-13.151h-1.874v7.923z"></path>
<path fill="#8e8f99" style="fill: var(--color1, #8e8f99)" d="M198.446 116.093l-1.508 5.229h-0.038l-1.506-5.229h-1.985l2.573 7.593v5.558h1.875v-5.558l2.573-7.593h-1.984z"></path>
<path fill="#8e8f99" style="fill: var(--color1, #8e8f99)" d="M124.091 132.958h0.903v2.534h0.613v-2.534h0.898v-0.519h-2.415v0.519z"></path>
<path fill="#8e8f99" style="fill: var(--color1, #8e8f99)" d="M131.683 132.438l-1.183 3.054h0.652l0.251-0.694h1.217l0.261 0.694h0.666l-1.212-3.054h-0.652zM131.586 134.283l0.415-1.131 0.415 1.131h-0.831z"></path>
<path fill="#8e8f99" style="fill: var(--color1, #8e8f99)" d="M139.188 134.366h0.705v0.393c-0.206 0.165-0.461 0.256-0.725 0.257-0.123 0.007-0.246-0.016-0.359-0.067s-0.211-0.128-0.288-0.225c-0.162-0.232-0.242-0.513-0.227-0.796 0-0.68 0.294-1.019 0.879-1.019 0.154-0.015 0.308 0.025 0.435 0.114s0.217 0.221 0.256 0.371l0.604-0.116c-0.13-0.597-0.56-0.898-1.294-0.898-0.392-0.011-0.774 0.13-1.067 0.393-0.154 0.152-0.273 0.336-0.349 0.539s-0.107 0.42-0.091 0.636c-0.018 0.418 0.122 0.827 0.391 1.146 0.149 0.154 0.331 0.274 0.531 0.351s0.414 0.11 0.628 0.095c0.478 0.013 0.942-0.161 1.294-0.485v-1.204h-1.323v0.514z"></path>
<path fill="#8e8f99" style="fill: var(--color1, #8e8f99)" d="M146.852 132.438h-0.618v3.054h2.139v-0.519h-1.521v-2.534z"></path>
<path fill="#8e8f99" style="fill: var(--color1, #8e8f99)" d="M153.333 132.438h-0.618v3.054h0.618v-3.054z"></path>
<path fill="#8e8f99" style="fill: var(--color1, #8e8f99)" d="M159.67 134.477l-1.251-2.039h-0.599v3.054h0.575v-1.995l1.227 1.995h0.613v-3.054h-0.565v2.039z"></path>
<path fill="#8e8f99" style="fill: var(--color1, #8e8f99)" d="M165.397 134.147h1.521v-0.519h-1.521v-0.67h1.637v-0.519h-2.255v3.054h2.318v-0.519h-1.7v-0.825z"></path>
<path fill="#8e8f99" style="fill: var(--color1, #8e8f99)" d="M179.287 133.642h-1.203v-1.204h-0.613v3.054h0.613v-1.335h1.203v1.335h0.613v-3.054h-0.613v1.204z"></path>
<path fill="#8e8f99" style="fill: var(--color1, #8e8f99)" d="M185.049 134.147h1.526v-0.519h-1.526v-0.67h1.642v-0.519h-2.255v3.054h2.313v-0.519h-1.7v-0.825z"></path>
<path fill="#8e8f99" style="fill: var(--color1, #8e8f99)" d="M192.862 134.147c0.533-0.083 0.802-0.364 0.802-0.85 0.015-0.13-0.004-0.262-0.057-0.381-0.052-0.12-0.136-0.223-0.242-0.299-0.277-0.139-0.584-0.201-0.893-0.18h-1.294v3.054h0.615v-1.277h0.12c0.13-0.008 0.262 0.015 0.382 0.068 0.090 0.055 0.164 0.132 0.218 0.223l0.666 0.971h0.733l-0.372-0.597c-0.164-0.295-0.395-0.546-0.676-0.733zM192.244 133.725h-0.452v-0.767h0.483c0.21-0.017 0.422 0.008 0.622 0.073 0.044 0.040 0.080 0.089 0.103 0.144s0.034 0.115 0.031 0.174c-0.002 0.060-0.019 0.118-0.046 0.17-0.029 0.053-0.069 0.098-0.116 0.133-0.202 0.062-0.412 0.086-0.624 0.073z"></path>
<path fill="#8e8f99" style="fill: var(--color1, #8e8f99)" d="M198.755 134.147h1.52v-0.519h-1.52v-0.67h1.642v-0.519h-2.26v3.054h2.318v-0.519h-1.699v-0.825z"></path>
</symbol>
<symbol id="icon-client-3" viewBox="0 0 321 168">
<path fill="#8e8f99" style="fill: var(--color1, #8e8f99)" d="M131.364 124.517c0.031 0 0.061 0.007 0.089 0.017s0.053 0.026 0.074 0.046l0.421 0.396c-0.327 0.321-0.732 0.577-1.186 0.752-0.532 0.191-1.105 0.283-1.681 0.27-0.542 0.010-1.080-0.076-1.581-0.252-0.452-0.161-0.858-0.404-1.191-0.712-0.339-0.319-0.601-0.692-0.769-1.099-0.184-0.453-0.275-0.93-0.269-1.409-0.008-0.483 0.091-0.962 0.29-1.414 0.184-0.409 0.462-0.783 0.817-1.099 0.36-0.31 0.79-0.554 1.265-0.716 0.519-0.172 1.072-0.258 1.628-0.252 0.517-0.011 1.031 0.067 1.512 0.23 0.417 0.155 0.8 0.37 1.133 0.635l-0.353 0.423c-0.024 0.030-0.055 0.056-0.090 0.077-0.042 0.024-0.092 0.036-0.142 0.032-0.055-0.003-0.107-0.019-0.153-0.045l-0.19-0.113-0.263-0.144c-0.114-0.053-0.232-0.1-0.353-0.14-0.156-0.048-0.317-0.085-0.48-0.113-0.207-0.032-0.417-0.048-0.627-0.045-0.401-0.004-0.798 0.060-1.17 0.189-0.346 0.119-0.659 0.301-0.917 0.531-0.263 0.245-0.465 0.533-0.595 0.847-0.148 0.358-0.222 0.736-0.216 1.117-0.006 0.386 0.067 0.77 0.216 1.135 0.128 0.311 0.327 0.597 0.585 0.842 0.241 0.229 0.54 0.407 0.875 0.522 0.344 0.122 0.713 0.183 1.085 0.18 0.215 0.003 0.43-0.009 0.643-0.036 0.347-0.036 0.681-0.139 0.975-0.302 0.147-0.083 0.287-0.176 0.416-0.279 0.054-0.044 0.126-0.070 0.2-0.072z"></path>
<path fill="#8e8f99" style="fill: var(--color1, #8e8f99)" d="M143.537 122.526c0.007 0.478-0.090 0.952-0.284 1.4-0.172 0.406-0.442 0.777-0.794 1.087s-0.776 0.554-1.246 0.714c-1.032 0.336-2.172 0.336-3.204 0-0.467-0.163-0.888-0.406-1.239-0.716-0.351-0.316-0.624-0.69-0.801-1.099-0.379-0.907-0.379-1.898 0-2.805 0.18-0.409 0.452-0.784 0.801-1.103 0.353-0.3 0.775-0.534 1.239-0.689 1.030-0.342 2.174-0.342 3.204 0 0.468 0.162 0.892 0.406 1.244 0.716 0.347 0.313 0.617 0.682 0.796 1.085 0.195 0.451 0.292 0.929 0.284 1.409zM142.431 122.526c0.008-0.382-0.060-0.763-0.2-1.126-0.118-0.311-0.31-0.597-0.564-0.842-0.247-0.231-0.551-0.413-0.891-0.531-0.75-0.246-1.58-0.246-2.329 0-0.339 0.118-0.644 0.3-0.891 0.531-0.257 0.243-0.451 0.53-0.569 0.842-0.268 0.733-0.268 1.519 0 2.251 0.119 0.312 0.313 0.598 0.569 0.842 0.247 0.23 0.552 0.41 0.891 0.527 0.751 0.24 1.578 0.24 2.329 0 0.339-0.117 0.643-0.297 0.891-0.527 0.253-0.245 0.445-0.532 0.564-0.842 0.141-0.363 0.209-0.743 0.2-1.126z"></path>
<path fill="#8e8f99" style="fill: var(--color1, #8e8f99)" d="M151.842 123.707l0.111 0.252c0.042-0.090 0.079-0.171 0.121-0.252 0.040-0.084 0.086-0.167 0.137-0.248l2.693-4.183c0.053-0.072 0.1-0.117 0.153-0.131 0.072-0.019 0.147-0.026 0.221-0.022h0.796v6.803h-0.943v-5.002c0-0.063 0-0.135 0-0.212-0.005-0.078-0.005-0.156 0-0.234l-2.709 4.241c-0.034 0.063-0.089 0.117-0.159 0.155s-0.149 0.057-0.231 0.057h-0.153c-0.082 0.001-0.163-0.019-0.232-0.056s-0.124-0.092-0.158-0.156l-2.788-4.268c0 0.081 0 0.162 0 0.243s0 0.153 0 0.216v5.002h-0.912v-6.79h0.796c0.075-0.004 0.15 0.004 0.221 0.022 0.065 0.028 0.117 0.074 0.147 0.131l2.751 4.187c0.054 0.077 0.1 0.159 0.137 0.243z"></path>
<path fill="#8e8f99" style="fill: var(--color1, #8e8f99)" d="M161.976 123.369v2.548h-1.054v-6.794h2.35c0.444-0.007 0.886 0.043 1.312 0.148 0.341 0.083 0.658 0.227 0.928 0.423 0.234 0.184 0.414 0.412 0.527 0.666 0.125 0.277 0.185 0.572 0.179 0.869 0.005 0.298-0.062 0.594-0.195 0.869-0.126 0.261-0.321 0.493-0.569 0.68-0.27 0.204-0.588 0.358-0.933 0.45-0.41 0.112-0.84 0.165-1.27 0.157l-1.275-0.018zM161.976 122.639h1.275c0.277 0.003 0.553-0.032 0.817-0.104 0.218-0.063 0.419-0.162 0.59-0.293 0.158-0.125 0.281-0.279 0.358-0.45 0.086-0.182 0.129-0.376 0.126-0.572 0.012-0.189-0.024-0.378-0.105-0.553s-0.208-0.334-0.369-0.464c-0.403-0.269-0.908-0.399-1.418-0.365h-1.275v2.8z"></path>
<path fill="#8e8f99" style="fill: var(--color1, #8e8f99)" d="M176.141 125.926h-0.833c-0.084 0.003-0.166-0.020-0.232-0.063-0.060-0.042-0.107-0.096-0.137-0.158l-0.717-1.644h-3.599l-0.743 1.644c-0.027 0.060-0.073 0.113-0.132 0.153-0.067 0.046-0.151 0.070-0.237 0.068h-0.833l3.162-6.804h1.096l3.204 6.804zM170.924 123.4h2.972l-1.254-2.769c-0.096-0.208-0.175-0.422-0.237-0.639l-0.121 0.356c-0.037 0.108-0.079 0.207-0.116 0.288l-1.244 2.765z"></path>
<path fill="#8e8f99" style="fill: var(--color1, #8e8f99)" d="M180.695 119.154c0.063 0.030 0.117 0.071 0.158 0.122l4.611 5.129c0-0.081 0-0.162 0-0.239s0-0.153 0-0.225v-4.818h0.943v6.804h-0.527c-0.075 0.002-0.149-0.012-0.216-0.041-0.065-0.032-0.122-0.075-0.168-0.126l-4.606-5.124c0.005 0.078 0.005 0.156 0 0.234 0 0.077 0 0.144 0 0.207v4.85h-0.943v-6.804h0.559c0.065-0.001 0.13 0.009 0.189 0.031z"></path>
<path fill="#8e8f99" style="fill: var(--color1, #8e8f99)" d="M194.174 123.22v2.702h-1.054v-2.702l-2.914-4.097h0.944c0.082-0.004 0.162 0.017 0.227 0.059 0.057 0.044 0.105 0.095 0.141 0.153l1.823 2.643c0.074 0.113 0.137 0.216 0.191 0.315 0.052 0.099 0.094 0.194 0.132 0.288l0.136-0.293c0.052-0.107 0.113-0.211 0.179-0.311l1.798-2.661c0.036-0.053 0.082-0.102 0.136-0.144 0.063-0.047 0.145-0.071 0.227-0.068h0.955l-2.921 4.116z"></path>
<path fill="#8e8f99" style="fill: var(--color1, #8e8f99)" d="M151.321 107.705c0.458 0.049 0.922 0.090 1.391 0.126 7.111-2.718 13.126-7.166 17.294-12.788s6.304-12.17 6.141-18.824l-7.836-6.695c1.593 7.084 0.848 14.408-2.153 21.151s-8.138 12.64-14.837 17.031z"></path>
<path fill="#8e8f99" style="fill: var(--color1, #8e8f99)" d="M148.523 107.394l0.211 0.036c7.159-4.375 12.617-10.485 15.668-17.538s3.556-14.728 1.448-22.029l-11.161-9.536c4.515 7.839 6.331 16.611 5.24 25.297s-5.047 16.929-11.406 23.77z"></path>
<path fill="#8e8f99" style="fill: var(--color1, #8e8f99)" d="M186.375 84.081c-1.896 7.311-6.502 13.905-13.132 18.802-1.937 1.438-4.025 2.719-6.239 3.827 5.399-1.356 10.362-3.753 14.505-7.007s7.357-7.277 9.393-11.759l-4.527-3.863z"></path>
<path fill="#8e8f99" style="fill: var(--color1, #8e8f99)" d="M184.599 83.004l-6.445-5.507c-0.123 6.278-2.212 12.413-6.050 17.768s-9.284 9.734-15.772 12.682h0.032c1.446-0 2.891-0.074 4.326-0.221 6.064-2.115 11.421-5.479 15.593-9.793s7.029-9.443 8.316-14.93z"></path>
<path fill="#8e8f99" style="fill: var(--color1, #8e8f99)" d="M149.455 54.306l-7.689-6.578c-6.873 2.269-12.785 6.259-16.96 11.446s-6.421 11.331-6.443 17.627v0c0.026 6.957 2.766 13.707 7.788 19.183s12.037 9.365 19.936 11.051c7.052-7.341 11.18-16.411 11.786-25.893s-2.343-18.883-8.419-26.835z"></path>
<path fill="#8e8f99" style="fill: var(--color1, #8e8f99)" d="M202.364 81.991c-0.029-8.253-3.877-16.162-10.708-21.999s-16.088-9.125-25.748-9.149c-4.464-0.004-8.89 0.7-13.053 2.076l47.075 40.221c1.611-3.555 2.436-7.335 2.434-11.148z"></path>
</symbol>
<symbol id="icon-client-4" viewBox="0 0 321 168">
<path fill="#8e8f99" style="fill: var(--color1, #8e8f99)" d="M107.058 71.625h-0.006c-4.554 0-8.246 3.329-8.246 7.435v0.005c0 4.106 3.692 7.435 8.246 7.435h0.006c4.554 0 8.246-3.329 8.246-7.435v-0.005c0-4.106-3.692-7.435-8.246-7.435z"></path>
<path fill="#8e8f99" style="fill: var(--color1, #8e8f99)" d="M167.926 69.248c-0.013-5.703-2.531-11.17-7.004-15.203s-10.535-6.305-16.861-6.318v0c-6.328 0.010-12.393 2.281-16.868 6.314s-6.994 9.502-7.007 15.207v31.451c0 0 47.734-4.793 47.739-31.446v-0.005z"></path>
<path fill="#8e8f99" style="fill: var(--color1, #8e8f99)" d="M82.091 111.022c0.011 3.969 1.764 7.771 4.876 10.578s7.329 4.389 11.731 4.4c4.4-0.012 8.617-1.593 11.729-4.398s4.865-6.607 4.879-10.575v-21.884c0 0-33.214 3.338-33.214 21.879zM98.698 114.943c-0.86 0-1.701-0.23-2.416-0.661s-1.273-1.043-1.602-1.76-0.415-1.505-0.247-2.266c0.168-0.761 0.582-1.459 1.19-2.008s1.383-0.922 2.227-1.073c0.844-0.151 1.718-0.073 2.513 0.223s1.474 0.799 1.952 1.444c0.478 0.645 0.733 1.403 0.733 2.178 0.002 0.516-0.109 1.028-0.326 1.505s-0.538 0.911-0.942 1.277c-0.404 0.366-0.884 0.656-1.413 0.854s-1.096 0.3-1.668 0.3v-0.015z"></path>
<path fill="#8e8f99" style="fill: var(--color1, #8e8f99)" d="M129.072 107.892v8.143h-1.678v-8.143h1.678zM132.315 111.371v1.309h-3.703v-1.309h3.703zM132.707 107.892v1.314h-4.094v-1.314h4.094zM140.37 111.774v0.386c0 0.619-0.084 1.175-0.252 1.667s-0.405 0.912-0.71 1.259c-0.306 0.343-0.671 0.606-1.096 0.789-0.421 0.183-0.889 0.274-1.404 0.274-0.511 0-0.979-0.091-1.404-0.274-0.421-0.183-0.787-0.446-1.096-0.789-0.309-0.347-0.55-0.766-0.721-1.259-0.168-0.492-0.252-1.048-0.252-1.667v-0.386c0-0.623 0.084-1.178 0.252-1.667 0.168-0.492 0.405-0.912 0.71-1.259 0.31-0.347 0.675-0.611 1.096-0.794 0.425-0.183 0.893-0.274 1.404-0.274 0.515 0 0.983 0.091 1.404 0.274 0.425 0.183 0.79 0.448 1.096 0.794 0.309 0.347 0.548 0.766 0.716 1.259 0.171 0.488 0.257 1.044 0.257 1.667zM138.675 112.16v-0.397c0-0.433-0.039-0.813-0.118-1.141s-0.194-0.604-0.347-0.828-0.339-0.392-0.559-0.504c-0.22-0.115-0.472-0.173-0.755-0.173s-0.535 0.058-0.755 0.173c-0.216 0.112-0.401 0.28-0.554 0.504-0.149 0.224-0.263 0.5-0.341 0.828s-0.118 0.708-0.118 1.141v0.397c0 0.429 0.039 0.809 0.118 1.141 0.078 0.328 0.194 0.606 0.347 0.833 0.153 0.224 0.339 0.393 0.559 0.509s0.472 0.174 0.755 0.174c0.283 0 0.535-0.058 0.755-0.174s0.405-0.285 0.554-0.509c0.149-0.227 0.263-0.505 0.341-0.833 0.078-0.332 0.118-0.712 0.118-1.141zM145.817 113.905c0-0.145-0.022-0.276-0.067-0.391-0.041-0.119-0.119-0.228-0.235-0.325-0.116-0.101-0.278-0.2-0.487-0.296s-0.479-0.198-0.811-0.302c-0.369-0.119-0.72-0.254-1.051-0.403-0.328-0.149-0.619-0.322-0.872-0.52-0.25-0.201-0.448-0.434-0.593-0.699-0.142-0.265-0.212-0.572-0.212-0.923 0-0.339 0.075-0.647 0.224-0.923 0.149-0.28 0.358-0.518 0.626-0.716 0.268-0.201 0.585-0.356 0.951-0.464 0.369-0.108 0.774-0.162 1.214-0.162 0.6 0 1.124 0.108 1.572 0.324s0.794 0.513 1.040 0.889c0.25 0.377 0.375 0.807 0.375 1.292h-1.667c0-0.239-0.050-0.448-0.151-0.626-0.097-0.183-0.246-0.326-0.448-0.431-0.198-0.105-0.448-0.157-0.749-0.157-0.291 0-0.533 0.045-0.727 0.134-0.194 0.086-0.339 0.203-0.436 0.352-0.097 0.145-0.146 0.309-0.146 0.492 0 0.138 0.034 0.263 0.101 0.375 0.071 0.112 0.175 0.216 0.313 0.313s0.308 0.189 0.509 0.274c0.201 0.086 0.434 0.169 0.699 0.252 0.444 0.134 0.833 0.285 1.169 0.453 0.339 0.168 0.623 0.356 0.85 0.565s0.399 0.446 0.515 0.71c0.115 0.265 0.173 0.565 0.173 0.901 0 0.354-0.069 0.671-0.207 0.951s-0.337 0.516-0.599 0.71c-0.261 0.194-0.572 0.341-0.934 0.442s-0.766 0.151-1.214 0.151c-0.403 0-0.8-0.052-1.191-0.157-0.392-0.108-0.748-0.27-1.068-0.487-0.317-0.216-0.57-0.492-0.761-0.828s-0.285-0.733-0.285-1.191h1.683c0 0.253 0.039 0.468 0.117 0.643s0.188 0.317 0.33 0.425c0.145 0.108 0.317 0.186 0.514 0.235 0.201 0.049 0.421 0.073 0.66 0.073 0.291 0 0.529-0.041 0.716-0.123 0.19-0.082 0.33-0.196 0.42-0.341 0.093-0.145 0.14-0.309 0.14-0.492zM152.277 107.892v8.143h-1.672v-8.143h1.672zM154.783 107.892v1.314h-6.645v-1.314h6.645zM161.203 114.727v1.309h-4.335v-1.309h4.335zM157.417 107.892v8.143h-1.678v-8.143h1.678zM160.639 111.209v1.275h-3.77v-1.275h3.77zM161.198 107.892v1.314h-4.329v-1.314h4.329zM162.182 107.892h3.037c0.623 0 1.158 0.093 1.605 0.28 0.451 0.187 0.798 0.462 1.040 0.828s0.364 0.815 0.364 1.348c0 0.436-0.074 0.811-0.224 1.124-0.145 0.309-0.352 0.569-0.621 0.777-0.265 0.205-0.576 0.369-0.934 0.492l-0.531 0.28h-2.64l-0.011-1.309h1.963c0.294 0 0.539-0.052 0.733-0.157s0.339-0.25 0.436-0.436c0.101-0.186 0.151-0.403 0.151-0.649 0-0.261-0.049-0.487-0.145-0.677s-0.244-0.336-0.442-0.436-0.446-0.151-0.744-0.151h-1.359v6.829h-1.678v-8.143zM166.735 116.036l-1.857-3.63 1.773-0.011 1.879 3.563v0.078h-1.795zM175.544 113.133h-2.075v-1.309h2.075c0.321 0 0.581-0.052 0.783-0.157 0.201-0.108 0.349-0.257 0.442-0.448s0.14-0.405 0.14-0.643c0-0.242-0.047-0.468-0.14-0.677s-0.241-0.377-0.442-0.504-0.462-0.19-0.783-0.19h-1.493v6.829h-1.678v-8.143h3.171c0.637 0 1.184 0.116 1.639 0.347 0.459 0.227 0.809 0.542 1.051 0.945s0.364 0.863 0.364 1.381c0 0.526-0.121 0.981-0.364 1.365s-0.593 0.681-1.051 0.889c-0.455 0.209-1.001 0.313-1.639 0.313zM185.22 114.727v1.309h-4.335v-1.309h4.335zM181.433 107.892v8.143h-1.678v-8.143h1.678zM184.655 111.209v1.275h-3.77v-1.275h3.77zM185.214 107.892v1.314h-4.329v-1.314h4.329zM189.952 107.892v8.143h-1.672v-8.143h1.672zM192.457 107.892v1.314h-6.644v-1.314h6.644zM198.878 114.727v1.309h-4.334v-1.309h4.334zM195.092 107.892v8.143h-1.678v-8.143h1.678zM198.313 111.209v1.275h-3.769v-1.275h3.769zM198.872 107.892v1.314h-4.328v-1.314h4.328zM199.857 107.892h3.037c0.622 0 1.157 0.093 1.606 0.28 0.451 0.187 0.798 0.462 1.040 0.828s0.363 0.815 0.363 1.348c0 0.436-0.074 0.811-0.223 1.124-0.145 0.309-0.353 0.569-0.62 0.777-0.265 0.205-0.577 0.369-0.935 0.492l-0.531 0.28h-2.64l-0.011-1.309h1.964c0.294 0 0.538-0.052 0.731-0.157 0.195-0.105 0.34-0.25 0.437-0.436 0.101-0.186 0.151-0.403 0.151-0.649 0-0.261-0.048-0.487-0.145-0.677s-0.244-0.336-0.443-0.436c-0.197-0.101-0.445-0.151-0.743-0.151h-1.359v6.829h-1.678v-8.143zM204.41 116.036l-1.858-3.63 1.774-0.011 1.879 3.563v0.078h-1.795zM211.434 113.905c0-0.145-0.021-0.276-0.067-0.391-0.040-0.119-0.118-0.228-0.235-0.325-0.115-0.101-0.277-0.2-0.487-0.296-0.208-0.097-0.479-0.198-0.809-0.302-0.37-0.119-0.72-0.254-1.052-0.403-0.328-0.149-0.619-0.322-0.872-0.52-0.25-0.201-0.449-0.434-0.594-0.699-0.141-0.265-0.212-0.572-0.212-0.923 0-0.339 0.074-0.647 0.223-0.923 0.149-0.28 0.359-0.518 0.626-0.716 0.269-0.201 0.586-0.356 0.951-0.464 0.37-0.108 0.775-0.162 1.214-0.162 0.599 0 1.124 0.108 1.571 0.324 0.449 0.216 0.794 0.513 1.040 0.889 0.25 0.377 0.374 0.807 0.374 1.292h-1.667c0-0.239-0.050-0.448-0.151-0.626-0.095-0.183-0.246-0.326-0.447-0.431-0.199-0.105-0.447-0.157-0.75-0.157-0.29 0-0.533 0.045-0.727 0.134-0.193 0.086-0.338 0.203-0.435 0.352-0.097 0.145-0.145 0.309-0.145 0.492 0 0.138 0.032 0.263 0.101 0.375 0.071 0.112 0.174 0.216 0.313 0.313 0.137 0.097 0.307 0.189 0.508 0.274 0.202 0.086 0.435 0.169 0.699 0.252 0.445 0.134 0.834 0.285 1.17 0.453 0.338 0.168 0.622 0.356 0.85 0.565s0.399 0.446 0.515 0.71c0.115 0.265 0.172 0.565 0.172 0.901 0 0.354-0.069 0.671-0.206 0.951s-0.338 0.516-0.599 0.71c-0.26 0.194-0.571 0.341-0.934 0.442-0.361 0.101-0.766 0.151-1.214 0.151-0.401 0-0.798-0.052-1.191-0.157-0.391-0.108-0.746-0.27-1.067-0.487-0.317-0.216-0.571-0.492-0.762-0.828-0.189-0.336-0.284-0.733-0.284-1.191h1.684c0 0.253 0.038 0.468 0.116 0.643s0.189 0.317 0.33 0.425c0.145 0.108 0.317 0.186 0.515 0.235 0.2 0.049 0.42 0.073 0.659 0.073 0.292 0 0.531-0.041 0.716-0.123 0.191-0.082 0.33-0.196 0.42-0.341 0.094-0.145 0.139-0.309 0.139-0.492z"></path>
</symbol>
<symbol id="icon-client-5" viewBox="0 0 321 168">
<path fill="#8e8f99" style="fill: var(--color1, #8e8f99)" d="M112.239 115.258c0.469 0.522 0.718 1.176 0.705 1.848 0.024 0.438-0.062 0.875-0.251 1.279s-0.477 0.764-0.842 1.055c-0.91 0.619-2.038 0.922-3.177 0.852h-5.584v-11.707h5.47c1.080-0.064 2.151 0.21 3.031 0.778 0.353 0.266 0.633 0.602 0.817 0.983s0.267 0.794 0.244 1.208c0.032 0.646-0.193 1.281-0.635 1.79-0.424 0.465-1.011 0.788-1.664 0.915 0.741 0.122 1.409 0.476 1.887 1.001zM105.689 113.49h2.338c0.531 0.035 1.059-0.103 1.487-0.389 0.175-0.143 0.312-0.321 0.399-0.519s0.122-0.412 0.103-0.624c0.016-0.212-0.020-0.424-0.105-0.622s-0.219-0.376-0.391-0.522c-0.44-0.294-0.984-0.434-1.531-0.395h-2.3v3.071zM109.742 117.98c0.188-0.147 0.335-0.33 0.431-0.536s0.137-0.43 0.122-0.653c0.014-0.226-0.029-0.451-0.127-0.66s-0.248-0.393-0.438-0.541c-0.457-0.305-1.020-0.455-1.588-0.423h-2.452v3.22h2.484c0.559 0.029 1.113-0.114 1.569-0.406z"></path>
<path fill="#8e8f99" style="fill: var(--color1, #8e8f99)" d="M123.42 120.29l-3.043-4.575h-1.144v4.575h-2.617v-11.707h4.955c1.249-0.078 2.484 0.278 3.45 0.995 0.693 0.635 1.11 1.473 1.178 2.361s-0.22 1.769-0.809 2.484c-0.611 0.63-1.447 1.051-2.363 1.19l3.24 4.678h-2.846zM119.234 114.12h2.141c1.486 0 2.23-0.591 2.23-1.773 0.015-0.242-0.026-0.483-0.12-0.709s-0.239-0.433-0.427-0.606c-0.47-0.352-1.075-0.522-1.683-0.475h-2.166l0.025 3.563z"></path>
<path fill="#8e8f99" style="fill: var(--color1, #8e8f99)" d="M137.727 117.935h-5.216l-0.921 2.356h-2.744l4.79-11.576h2.967l4.771 11.576h-2.744l-0.902-2.356zM137.028 116.162l-1.906-4.942-1.906 4.942h3.812z"></path>
<path fill="#8e8f99" style="fill: var(--color1, #8e8f99)" d="M155.636 120.291h-2.598l-5.826-7.961v7.961h-2.592v-11.707h2.592l5.826 8.007v-8.007h2.598v11.707z"></path>
<path fill="#8e8f99" style="fill: var(--color1, #8e8f99)" d="M170.463 117.488c-0.537 0.884-1.356 1.603-2.351 2.065-1.131 0.514-2.386 0.768-3.653 0.738h-4.625v-11.707h4.625c1.264-0.030 2.518 0.218 3.653 0.721 0.995 0.451 1.814 1.163 2.351 2.042 0.535 0.952 0.813 2.004 0.813 3.071s-0.279 2.119-0.813 3.071zM167.49 117.208c0.742-0.778 1.149-1.769 1.149-2.794s-0.408-2.016-1.149-2.794c-0.896-0.704-2.065-1.062-3.253-0.995h-1.804v7.578h1.804c1.187 0.067 2.356-0.291 3.253-0.995z"></path>
<path fill="#8e8f99" style="fill: var(--color1, #8e8f99)" d="M139.353 43.464c0 0 33.537 11.399 32.825 27.893v27.898c0 0-33.511-11.404-32.813-27.898l-0.013-27.893z"></path>
<path fill="#8e8f99" style="fill: var(--color1, #8e8f99)" d="M202.056 92.723c6.334-3.924 13.66-6.355 21.307-7.069v-8.733c-8.812 3.057-16.286 8.601-21.307 15.802z"></path>
<path fill="#8e8f99" style="fill: var(--color1, #8e8f99)" d="M198.251 95.355c5.183-9.397 14.171-16.649 25.112-20.264v-25.165c0 0-47.761 16.237-46.751 39.726v39.72c0 0 2.128-0.726 5.476-2.088 0-1.27 0-2.551 0.153-3.838 0.988-10.905 6.747-21.010 16.010-28.093z"></path>
<path fill="#8e8f99" style="fill: var(--color1, #8e8f99)" d="M193.708 110.11c0.252-2.755 0.811-5.48 1.672-8.133-5.768 6.117-9.261 13.708-9.988 21.704-0.070 0.755-0.108 1.51-0.127 2.288 2.713-1.173 5.871-2.637 9.187-4.358-0.848-3.783-1.098-7.655-0.745-11.501z"></path>
<path fill="#8e8f99" style="fill: var(--color1, #8e8f99)" d="M195.607 110.254c-0.317 3.48-0.118 6.982 0.592 10.415 13.049-7.029 27.71-17.89 27.145-31.016v-1.144c-9.322 0.939-18.045 4.608-24.828 10.443-1.586 3.616-2.568 7.425-2.909 11.301z"></path>
</symbol>
<symbol id="icon-client-6" viewBox="0 0 321 168">
<path fill="#8e8f99" style="fill: var(--color1, #8e8f99)" d="M163.283 82.937c-0.848-1.128-1.253-2.461-1.157-3.803v-5.514c0-1.69 0.384-2.975 1.15-3.853s2.084-1.316 3.952-1.313c1.755 0 3.001 0.374 3.738 1.122 0.804 0.954 1.195 2.121 1.105 3.298v1.296h-3.139v-1.313c0.011-0.43-0.019-0.859-0.091-1.284-0.045-0.291-0.203-0.56-0.448-0.763-0.322-0.219-0.728-0.325-1.138-0.297-0.43-0.028-0.857 0.084-1.196 0.314-0.273 0.225-0.456 0.52-0.52 0.841-0.090 0.45-0.131 0.906-0.124 1.363v6.692c-0.049 0.645 0.089 1.291 0.403 1.879 0.156 0.199 0.373 0.357 0.627 0.455s0.534 0.136 0.81 0.105c0.402 0.029 0.801-0.080 1.112-0.303 0.256-0.219 0.42-0.505 0.468-0.813 0.073-0.444 0.106-0.892 0.097-1.341v-1.357h3.139v1.239c0.088 1.227-0.293 2.445-1.085 3.466-0.721 0.819-1.95 1.228-3.757 1.228s-3.172-0.437-3.946-1.346z"></path>
<path fill="#8e8f99" style="fill: var(--color1, #8e8f99)" d="M176.355 82.993c-0.793-0.858-1.189-2.109-1.189-3.764v-5.8c0-1.638 0.397-2.877 1.189-3.719s2.119-1.26 3.978-1.256c1.846 0 3.165 0.419 3.958 1.256 0.793 0.841 1.196 2.081 1.196 3.719v5.8c0 1.638-0.403 2.894-1.209 3.758s-2.119 1.296-3.945 1.296-3.178-0.437-3.978-1.29zM181.795 81.602c0.284-0.537 0.413-1.126 0.377-1.716v-7.101c0.036-0.579-0.091-1.156-0.371-1.683-0.159-0.203-0.381-0.363-0.641-0.462s-0.546-0.133-0.828-0.098c-0.282-0.034-0.569 0-0.83 0.1s-0.484 0.259-0.645 0.461c-0.286 0.525-0.415 1.103-0.377 1.683v7.134c-0.040 0.59 0.090 1.18 0.377 1.716 0.183 0.181 0.409 0.326 0.662 0.425s0.528 0.151 0.807 0.151 0.553-0.051 0.807-0.151c0.253-0.099 0.479-0.245 0.662-0.425v-0.034z"></path>
<path fill="#8e8f99" style="fill: var(--color1, #8e8f99)" d="M189.263 68.624h3.38l2.541 10.701 2.6-10.701h3.289l0.332 15.445h-2.432l-0.26-10.734-2.509 10.734h-1.949l-2.6-10.774-0.241 10.774h-2.457l0.305-15.446z"></path>
<path fill="#8e8f99" style="fill: var(--color1, #8e8f99)" d="M205.195 68.624h5.265c3.032 0 4.549 1.462 4.549 4.386 0 2.8-1.598 4.199-4.79 4.195h-1.795v6.865h-3.249l0.019-15.445zM209.693 75.225c0.321 0.035 0.647 0.010 0.956-0.074 0.307-0.084 0.592-0.225 0.83-0.413 0.372-0.522 0.536-1.134 0.468-1.744 0.017-0.471-0.034-0.942-0.155-1.402-0.048-0.154-0.128-0.298-0.241-0.424-0.111-0.126-0.25-0.232-0.41-0.311-0.451-0.187-0.949-0.272-1.449-0.247h-1.262v4.616h1.262z"></path>
<path fill="#8e8f99" style="fill: var(--color1, #8e8f99)" d="M219.696 68.624h3.49l3.581 15.445h-3.030l-0.708-3.561h-3.114l-0.727 3.561h-3.074l3.581-15.446zM222.678 78.719l-1.214-6.483-1.216 6.483h2.43z"></path>
<path fill="#8e8f99" style="fill: var(--color1, #8e8f99)" d="M229.66 68.624h2.276l4.355 8.811v-8.811h2.698v15.445h-2.165l-4.381-9.198v9.198h-2.787l0.006-15.446z"></path>
<path fill="#8e8f99" style="fill: var(--color1, #8e8f99)" d="M245.305 78.18l-3.62-9.534h3.049l2.209 6.125 2.073-6.125h2.984l-3.576 9.534v5.889h-3.119v-5.889z"></path>
<path fill="#8e8f99" style="fill: var(--color1, #8e8f99)" d="M168.301 90.822v0.808h-2.652v6.276h-1.112v-6.276h-2.665v-0.808h6.428z"></path>
<path fill="#8e8f99" style="fill: var(--color1, #8e8f99)" d="M176.614 97.907h-0.858c-0.087 0.005-0.173-0.019-0.241-0.067-0.065-0.041-0.115-0.098-0.143-0.163l-0.767-1.682h-3.679l-0.767 1.682c-0.022 0.070-0.062 0.136-0.117 0.191-0.068 0.047-0.154 0.071-0.241 0.067h-0.858l3.25-7.084h1.131l3.289 7.056zM171.233 95.276h3.068l-1.3-2.883c-0.096-0.218-0.176-0.441-0.241-0.667-0.045 0.135-0.084 0.264-0.124 0.376l-0.117 0.297-1.287 2.877z"></path>
<path fill="#8e8f99" style="fill: var(--color1, #8e8f99)" d="M182.217 97.211c0.203 0.009 0.407 0.009 0.611 0 0.176-0.016 0.35-0.044 0.52-0.084 0.159-0.034 0.315-0.077 0.468-0.129 0.143-0.050 0.286-0.112 0.435-0.174v-1.593h-1.3c-0.032 0.001-0.064-0.003-0.095-0.012s-0.058-0.025-0.081-0.044c-0.021-0.016-0.038-0.036-0.049-0.058s-0.017-0.047-0.015-0.071v-0.544h2.522v2.715c-0.206 0.127-0.423 0.24-0.65 0.336-0.232 0.099-0.473 0.179-0.721 0.241-0.266 0.068-0.538 0.116-0.812 0.146-0.315 0.030-0.632 0.045-0.949 0.045-0.56 0.004-1.117-0.085-1.638-0.264-0.487-0.169-0.929-0.42-1.3-0.74-0.362-0.323-0.647-0.704-0.839-1.122-0.205-0.47-0.306-0.968-0.299-1.47-0.007-0.505 0.092-1.007 0.293-1.481 0.187-0.42 0.472-0.802 0.839-1.122 0.371-0.319 0.813-0.569 1.3-0.735 0.557-0.181 1.147-0.27 1.742-0.264 0.303-0 0.605 0.020 0.903 0.062 0.264 0.037 0.524 0.097 0.774 0.179 0.227 0.074 0.445 0.168 0.65 0.28 0.199 0.111 0.388 0.234 0.566 0.37l-0.312 0.438c-0.024 0.040-0.061 0.073-0.105 0.097s-0.096 0.037-0.148 0.037c-0.072-0.002-0.142-0.021-0.202-0.056-0.097-0.045-0.201-0.101-0.318-0.168-0.138-0.075-0.284-0.139-0.435-0.191-0.194-0.067-0.394-0.12-0.598-0.157-0.272-0.043-0.549-0.064-0.826-0.062-0.429-0.004-0.854 0.063-1.254 0.196-0.362 0.125-0.688 0.317-0.955 0.561-0.269 0.255-0.475 0.554-0.605 0.881-0.29 0.767-0.29 1.594 0 2.361 0.142 0.333 0.364 0.637 0.65 0.892 0.266 0.243 0.59 0.434 0.949 0.561 0.413 0.122 0.851 0.17 1.287 0.14z"></path>
<path fill="#8e8f99" style="fill: var(--color1, #8e8f99)" d="M192.578 97.098h3.549v0.808h-4.633v-7.084h1.111l-0.027 6.276z"></path>
<path fill="#8e8f99" style="fill: var(--color1, #8e8f99)" d="M199.819 97.906h-1.111v-7.084h1.111v7.084z"></path>
<path fill="#8e8f99" style="fill: var(--color1, #8e8f99)" d="M203.954 90.856c0.065 0.032 0.122 0.076 0.168 0.129l4.752 5.34c-0.008-0.084-0.008-0.168 0-0.252 0-0.078 0-0.157 0-0.23v-5.048h0.968v7.112h-0.559c-0.082 0.006-0.166-0.008-0.241-0.039-0.067-0.035-0.126-0.081-0.176-0.135l-4.744-5.334c0 0.084 0 0.163 0 0.241s0 0.151 0 0.219v5.048h-0.93v-7.084h0.578c0.063 0 0.126 0.011 0.183 0.034z"></path>
<path fill="#8e8f99" style="fill: var(--color1, #8e8f99)" d="M218.026 90.822v0.78h-3.94v2.339h3.192v0.752h-3.192v2.417h3.94v0.779h-5.084v-7.067h5.084z"></path>
<path fill="#8e8f99" style="fill: var(--color1, #8e8f99)" d="M101.555 47.076l49.353 12.092v42.373l-49.353-12.087v-42.379zM98.389 43.464v48.049l55.678 13.646v-48.044l-55.678-13.651z"></path>
<path fill="#8e8f99" style="fill: var(--color1, #8e8f99)" d="M128.23 127.464l-55.684-13.657v-48.044l55.684 13.651v48.050z"></path>
<path fill="#8e8f99" style="fill: var(--color1, #8e8f99)" d="M99.312 46.532l48.71 11.941-20.715 17.88-48.716-11.946 20.721-17.874zM98.389 43.464l-25.843 22.3 55.684 13.651 25.837-22.3-55.678-13.651z"></path>
<path fill="#8e8f99" style="fill: var(--color1, #8e8f99)" d="M131.363 124.761l22.704-19.596-22.704-5.569v25.165z"></path>
</symbol>
</defs>
</svg>
